<svg xmlns="http://www.w3.org/2000/svg" id="pg_number" width="80" height="20" viewBox="0 0 21.166666 5.2916668"><g fill="#4f504f"><path d="M.897 1.98l4.32-.04c.332-.003.664-.115.938-.391l.22-.22.027 2.95-.28-.27a1.456 1.456 0 0 0-.944-.374l-4.32.04c-.333.003-.556-.214-.56-.542l-.005-.546c.052-.383.271-.604.604-.607zM7.638.278L19.27.171s1.165.153 1.132 2.503c-.033 2.35-1.084 2.524-1.084 2.524L7.685 5.196c-.332.003-.556-.213-.503-.487L7.145.775C7.197.5 7.417.28 7.638.278z"/></g><g style="line-height:125%" font-weight="700" font-size="2.94" font-family="Khula" letter-spacing="0" word-spacing="0" fill="#fdd928" stroke-width=".521"><path d="M9.173 3.562H7.76v-.377h.446v-1.14H7.76v-.352q.102 0 .196-.011.094-.013.157-.044.074-.036.11-.094.038-.058.043-.145h.471v1.786h.437zM11.365 2.483q0 .272-.049.488-.048.214-.15.352-.106.14-.27.213-.166.07-.408.07-.237 0-.405-.072-.168-.072-.272-.214-.106-.142-.153-.352-.046-.211-.046-.484 0-.28.048-.488.048-.207.154-.35.105-.142.273-.213.168-.071.401-.071.244 0 .409.073.165.073.27.218.104.142.15.35.048.207.048.48zm-.55 0q0-.391-.076-.556-.076-.167-.25-.167-.176 0-.251.167-.076.165-.076.559 0 .383.077.553.077.17.25.17.171 0 .248-.17.077-.17.077-.556zM14.26 1.308l-1.128 2.723h-.437l1.125-2.723zM17.32 3.562h-1.415v-.377h.447v-1.14h-.447v-.352q.102 0 .196-.011.094-.013.157-.044.074-.036.11-.094.038-.058.043-.145h.471v1.786h.437zM19.51 2.483q0 .272-.047.488-.049.214-.151.352-.106.14-.27.213-.166.07-.408.07-.237 0-.405-.072-.168-.072-.272-.214-.105-.142-.152-.352-.047-.211-.047-.484 0-.28.048-.488.048-.207.154-.35.105-.142.273-.213.168-.071.401-.071.244 0 .409.073.165.073.27.218.104.142.151.35.047.207.047.48zm-.55 0q0-.391-.075-.556-.076-.167-.25-.167-.176 0-.251.167-.076.165-.076.559 0 .383.077.553.077.17.25.17.171 0 .248-.17.077-.17.077-.556z" style="line-height:100%;-inkscape-font-specification:'Khula Bold'"/></g></svg>