<svg xmlns="http://www.w3.org/2000/svg" id="pg_number" width="80" height="20" viewBox="0 0 21.166666 5.2916668"><g fill="#4f504f"><path d="M.897 1.98l4.32-.04c.332-.003.664-.115.938-.391l.22-.22.027 2.95-.28-.27a1.456 1.456 0 0 0-.944-.374l-4.32.04c-.333.003-.556-.214-.56-.542l-.005-.546c.052-.383.271-.604.604-.607zM7.638.278L19.27.171s1.165.153 1.132 2.503c-.033 2.35-1.084 2.524-1.084 2.524L7.685 5.196c-.332.003-.556-.213-.503-.487L7.145.775C7.197.5 7.417.28 7.638.278z"/></g><g style="line-height:125%" font-weight="700" font-size="3.19" font-family="Khula" letter-spacing="0" word-spacing="0" fill="#fdd928" stroke-width=".565"><path d="M9.93 2.563q.075.066.12.154t.045.234q0 .165-.065.308-.063.143-.196.245-.13.1-.306.153-.175.052-.425.052-.285 0-.49-.046-.205-.046-.333-.102v-.514h.06q.133.082.317.141.185.06.338.06.09 0 .195-.014.105-.016.177-.066.058-.04.091-.094.034-.057.034-.162 0-.102-.046-.157-.046-.057-.122-.08-.076-.026-.182-.027-.107-.003-.198-.003h-.126v-.418h.13q.121 0 .214-.008t.157-.037q.068-.03.102-.078.034-.05.034-.146 0-.071-.035-.113-.036-.044-.09-.07-.06-.028-.142-.037-.082-.01-.14-.01-.145 0-.315.052-.17.05-.33.147h-.056v-.508q.126-.052.344-.1.218-.048.442-.048.217 0 .381.04.164.037.27.102.127.077.189.187.061.11.061.257 0 .195-.118.35-.12.152-.314.194v.022q.079.011.167.044.088.033.16.096zM13.282 1.214L12.057 4.17h-.474l1.22-2.955zM16.6 3.66h-1.535v-.409h.485V2.014h-.485v-.381q.111 0 .213-.013.102-.014.17-.047.08-.04.12-.102.04-.063.047-.158h.511v1.938h.474zM18.978 2.49q0 .295-.052.529-.053.232-.164.382-.114.152-.293.23-.18.078-.442.078-.258 0-.44-.079t-.295-.233q-.114-.154-.165-.381-.051-.23-.051-.525 0-.305.052-.53.053-.225.167-.38.114-.154.297-.231.182-.077.435-.077.264 0 .443.08.18.078.294.236.112.154.163.38.051.225.051.52zm-.597 0q0-.425-.082-.604-.082-.181-.272-.181t-.272.18q-.082.18-.082.607 0 .417.084.6.083.184.27.184t.27-.183q.084-.184.084-.604z" style="line-height:100%;-inkscape-font-specification:'Khula Bold'"/></g></svg>