<svg xmlns="http://www.w3.org/2000/svg" id="pg_number" width="80" height="20" viewBox="0 0 21.166666 5.2916668"><g fill="#4f504f"><path d="M.897 1.98l4.32-.04c.332-.003.664-.115.938-.391l.22-.22.027 2.95-.28-.27a1.456 1.456 0 0 0-.944-.374l-4.32.04c-.333.003-.556-.214-.56-.542l-.005-.546c.052-.383.271-.604.604-.607zM7.638.278L19.27.171s1.165.153 1.132 2.503c-.033 2.35-1.084 2.524-1.084 2.524L7.685 5.196c-.332.003-.556-.213-.503-.487L7.145.775C7.197.5 7.417.28 7.638.278z"/></g><g style="line-height:125%" font-weight="700" font-size="3.19" font-family="Khula" letter-spacing="0" word-spacing="0" fill="#fdd928" stroke-width=".565"><path d="M10.105 2.868q0 .182-.067.34-.067.155-.195.267-.142.119-.327.177-.184.057-.42.057-.277-.002-.468-.046-.19-.042-.31-.096V3.05h.064q.14.085.303.142.162.056.323.056.097 0 .21-.022.114-.023.18-.083.053-.049.079-.1.028-.05.028-.155 0-.081-.037-.14-.036-.06-.093-.095-.083-.052-.2-.068-.118-.017-.214-.017-.139 0-.267.025-.127.024-.222.047h-.068V1.32h1.635v.448H8.961v.382l.12-.005q.075-.003.13-.003.19 0 .339.037.15.036.257.102.141.087.22.23.078.141.078.357zM13.282 1.214L12.057 4.17h-.474l1.22-2.955zM16.6 3.66h-1.535v-.409h.485V2.014h-.485v-.381q.111 0 .213-.013.102-.014.17-.047.08-.04.12-.102.04-.063.047-.158h.511v1.938h.474zM18.978 2.49q0 .295-.052.529-.053.232-.164.382-.114.152-.293.23-.18.078-.442.078-.258 0-.44-.079t-.295-.233q-.114-.154-.165-.381-.051-.23-.051-.525 0-.305.052-.53.053-.225.167-.38.114-.154.297-.231.182-.077.435-.077.264 0 .443.08.18.078.294.236.112.154.163.38.051.225.051.52zm-.597 0q0-.425-.082-.604-.082-.181-.272-.181t-.272.18q-.082.18-.082.607 0 .417.084.6.083.184.27.184t.27-.183q.084-.184.084-.604z" style="line-height:100%;-inkscape-font-specification:'Khula Bold'"/></g></svg>