<svg xmlns="http://www.w3.org/2000/svg" id="pg_number" width="80" height="20" viewBox="0 0 21.166666 5.2916668"><g fill="#4f504f"><path d="M.897 1.98l4.32-.04c.332-.003.664-.115.938-.391l.22-.22.027 2.95-.28-.27a1.456 1.456 0 0 0-.944-.374l-4.32.04c-.333.003-.556-.214-.56-.542l-.005-.546c.052-.383.271-.604.604-.607zM7.638.278L19.27.171s1.165.153 1.132 2.503c-.033 2.35-1.084 2.524-1.084 2.524L7.685 5.196c-.332.003-.556-.213-.503-.487L7.145.775C7.197.5 7.417.28 7.638.278z"/></g><g style="line-height:125%" font-weight="700" font-size="3.19" font-family="Khula" letter-spacing="0" word-spacing="0" fill="#fdd928" stroke-width=".565"><path d="M10.152 2.863q0 .18-.065.34-.065.158-.182.267-.125.116-.29.177-.164.062-.385.062-.207 0-.378-.057-.17-.058-.292-.176-.14-.135-.215-.349-.074-.214-.074-.51 0-.309.07-.548.069-.238.226-.422.152-.176.393-.274.242-.097.576-.097.112 0 .247.015.134.016.174.024v.46H9.9q-.042-.02-.143-.045-.098-.027-.225-.027-.296 0-.462.148-.165.148-.199.412.119-.073.25-.117.133-.045.286-.045.134 0 .249.031.115.032.214.1.128.092.206.246.077.154.077.385zm-.703.354q.048-.054.076-.126.03-.074.03-.2 0-.114-.033-.187t-.09-.117q-.055-.044-.131-.06-.076-.017-.156-.017-.068 0-.142.015-.074.016-.136.04l-.001.051q-.002.036-.002.091 0 .194.037.32.039.124.102.19.043.048.102.072.059.022.126.022.051 0 .113-.024.062-.023.105-.07zM13.282 1.214L12.057 4.17h-.474l1.22-2.955zM16.6 3.66h-1.535v-.409h.485V2.014h-.485v-.381q.111 0 .213-.013.102-.014.17-.047.08-.04.12-.102.04-.063.047-.158h.511v1.938h.474zM18.978 2.49q0 .295-.052.529-.053.232-.164.382-.114.152-.293.23-.18.078-.442.078-.258 0-.44-.079t-.295-.233q-.114-.154-.165-.381-.051-.23-.051-.525 0-.305.052-.53.053-.225.167-.38.114-.154.297-.231.182-.077.435-.077.264 0 .443.08.18.078.294.236.112.154.163.38.051.225.051.52zm-.597 0q0-.425-.082-.604-.082-.181-.272-.181t-.272.18q-.082.18-.082.607 0 .417.084.6.083.184.27.184t.27-.183q.084-.184.084-.604z" style="line-height:100%;-inkscape-font-specification:'Khula Bold'"/></g></svg>