<svg xmlns="http://www.w3.org/2000/svg" id="pg_number" width="80" height="20" viewBox="0 0 21.166666 5.2916668"><g fill="#4f504f"><path d="M.897 1.98l4.32-.04c.332-.003.664-.115.938-.391l.22-.22.027 2.95-.28-.27a1.456 1.456 0 0 0-.944-.374l-4.32.04c-.333.003-.556-.214-.56-.542l-.005-.546c.052-.383.271-.604.604-.607zM7.638.278L19.27.171s1.165.153 1.132 2.503c-.033 2.35-1.084 2.524-1.084 2.524L7.685 5.196c-.332.003-.556-.213-.503-.487L7.145.775C7.197.5 7.417.28 7.638.278z"/></g><g style="line-height:125%" font-weight="700" font-size="3.19" font-family="Khula" letter-spacing="0" word-spacing="0" fill="#fdd928" stroke-width=".565"><path d="M10.16 3.006q0 .311-.261.51-.26.197-.714.197-.255 0-.437-.053-.182-.054-.301-.148-.117-.093-.174-.217-.056-.124-.056-.267 0-.176.1-.311.102-.137.35-.239v-.01q-.2-.093-.294-.236-.094-.143-.094-.332 0-.278.253-.456.253-.177.66-.177.426 0 .666.161.243.16.243.43 0 .166-.102.297-.102.13-.312.221v.01q.24.092.357.25.116.156.116.37zm-.638-1.081q0-.12-.091-.19-.09-.071-.24-.071-.055 0-.114.014-.057.014-.105.04-.045.028-.074.072-.03.042-.03.097 0 .093.052.145.052.052.17.103.043.02.117.048.075.026.182.06.071-.084.102-.152.03-.067.03-.166zm.048 1.108q0-.113-.056-.171-.056-.059-.228-.134-.051-.024-.149-.058l-.163-.06q-.067.061-.12.15-.053.086-.053.194 0 .164.114.261.116.096.301.096.05 0 .116-.014.066-.016.114-.047.056-.036.09-.085.034-.049.034-.132zM13.282 1.214L12.057 4.17h-.474l1.22-2.955zM16.6 3.66h-1.535v-.409h.485V2.014h-.485v-.381q.111 0 .213-.013.102-.014.17-.047.08-.04.12-.102.04-.063.047-.158h.511v1.938h.474zM18.978 2.49q0 .295-.052.529-.053.232-.164.382-.114.152-.293.23-.18.078-.442.078-.258 0-.44-.079t-.295-.233q-.114-.154-.165-.381-.051-.23-.051-.525 0-.305.052-.53.053-.225.167-.38.114-.154.297-.231.182-.077.435-.077.264 0 .443.08.18.078.294.236.112.154.163.38.051.225.051.52zm-.597 0q0-.425-.082-.604-.082-.181-.272-.181t-.272.18q-.082.18-.082.607 0 .417.084.6.083.184.27.184t.27-.183q.084-.184.084-.604z" style="line-height:100%;-inkscape-font-specification:'Khula Bold'"/></g></svg>