<svg xmlns="http://www.w3.org/2000/svg" id="pg_number" width="80" height="20" viewBox="0 0 21.166666 5.2916668"><g fill="#4f504f"><path d="M.897 1.98l4.32-.04c.332-.003.664-.115.938-.391l.22-.22.027 2.95-.28-.27a1.456 1.456 0 0 0-.944-.374l-4.32.04c-.333.003-.556-.214-.56-.542l-.005-.546c.052-.383.271-.604.604-.607zM7.638.278L19.27.171s1.165.153 1.132 2.503c-.033 2.35-1.084 2.524-1.084 2.524L7.685 5.196c-.332.003-.556-.213-.503-.487L7.145.775C7.197.5 7.417.28 7.638.278z"/></g><g style="line-height:125%" font-weight="700" font-size="3.19" font-family="Khula" letter-spacing="0" word-spacing="0" fill="#fdd928" stroke-width=".565"><path d="M10.105 2.359q0 .294-.074.547-.074.253-.225.425-.164.188-.406.282-.243.093-.565.093-.115 0-.247-.015-.133-.014-.175-.025v-.46h.062q.046.022.131.047.087.025.235.025.12 0 .236-.03.116-.031.2-.097.09-.071.149-.176.059-.107.079-.257-.135.08-.25.122-.115.04-.286.04-.13 0-.249-.031-.117-.033-.214-.1-.128-.093-.206-.244-.075-.153-.075-.384 0-.375.256-.611.258-.238.675-.238.214 0 .38.059.166.056.287.174.14.135.211.344.071.21.071.51zm-.59-.088q0-.192-.038-.315-.036-.124-.099-.191-.045-.05-.103-.073-.059-.022-.124-.022-.06 0-.116.022-.054.02-.105.073-.048.05-.078.132-.03.081-.03.194 0 .11.033.186.032.074.09.118.053.042.126.06.074.017.16.017.07 0 .152-.017.082-.02.126-.038l.002-.049q.003-.033.003-.097zM13.282 1.214L12.057 4.17h-.474l1.22-2.955zM16.6 3.66h-1.535v-.409h.485V2.014h-.485v-.381q.111 0 .213-.013.102-.014.17-.047.08-.04.12-.102.04-.063.047-.158h.511v1.938h.474zM18.978 2.49q0 .295-.052.529-.053.232-.164.382-.114.152-.293.23-.18.078-.442.078-.258 0-.44-.079t-.295-.233q-.114-.154-.165-.381-.051-.23-.051-.525 0-.305.052-.53.053-.225.167-.38.114-.154.297-.231.182-.077.435-.077.264 0 .443.08.18.078.294.236.112.154.163.38.051.225.051.52zm-.597 0q0-.425-.082-.604-.082-.181-.272-.181t-.272.18q-.082.18-.082.607 0 .417.084.6.083.184.27.184t.27-.183q.084-.184.084-.604z" style="line-height:100%;-inkscape-font-specification:'Khula Bold'"/></g></svg>